<mxfile host="Electron" modified="2024-02-09T11:44:50.660Z" agent="Mozilla/5.0 (Macintosh; Intel Mac OS X 10_15_7) AppleWebKit/537.36 (KHTML, like Gecko) draw.io/22.1.18 Chrome/120.0.6099.199 Electron/28.1.2 Safari/537.36" etag="zAGTizvGPa0OyehUDVxb" version="22.1.18" type="device">
  <diagram name="Page-1" id="U0Bt7bdhZBTn_V1YB1GC">
    <mxGraphModel dx="954" dy="808" grid="1" gridSize="10" guides="1" tooltips="1" connect="1" arrows="1" fold="1" page="1" pageScale="1" pageWidth="827" pageHeight="1169" math="0" shadow="0">
      <root>
        <mxCell id="0" />
        <mxCell id="1" parent="0" />
        <mxCell id="DgW_6TdiKeqGQ3ARQh2M-14" value="events" style="shape=table;startSize=30;container=1;collapsible=0;childLayout=tableLayout;fillColor=#9bab96;" parent="1" vertex="1">
          <mxGeometry x="50" y="40" width="100" height="270" as="geometry" />
        </mxCell>
        <mxCell id="DgW_6TdiKeqGQ3ARQh2M-15" value="" style="shape=tableRow;horizontal=0;startSize=0;swimlaneHead=0;swimlaneBody=0;strokeColor=inherit;top=0;left=0;bottom=0;right=0;collapsible=0;dropTarget=0;fillColor=#bed1b8;points=[[0,0.5],[1,0.5]];portConstraint=eastwest;" parent="DgW_6TdiKeqGQ3ARQh2M-14" vertex="1">
          <mxGeometry y="30" width="100" height="40" as="geometry" />
        </mxCell>
        <mxCell id="DgW_6TdiKeqGQ3ARQh2M-16" value="hadm_id" style="shape=partialRectangle;html=1;whiteSpace=wrap;connectable=0;strokeColor=inherit;overflow=hidden;fillColor=none;top=0;left=0;bottom=0;right=0;pointerEvents=1;" parent="DgW_6TdiKeqGQ3ARQh2M-15" vertex="1">
          <mxGeometry width="100" height="40" as="geometry">
            <mxRectangle width="100" height="40" as="alternateBounds" />
          </mxGeometry>
        </mxCell>
        <mxCell id="DgW_6TdiKeqGQ3ARQh2M-17" value="" style="shape=tableRow;horizontal=0;startSize=0;swimlaneHead=0;swimlaneBody=0;strokeColor=inherit;top=0;left=0;bottom=0;right=0;collapsible=0;dropTarget=0;fillColor=none;points=[[0,0.5],[1,0.5]];portConstraint=eastwest;" parent="DgW_6TdiKeqGQ3ARQh2M-14" vertex="1">
          <mxGeometry y="70" width="100" height="40" as="geometry" />
        </mxCell>
        <mxCell id="DgW_6TdiKeqGQ3ARQh2M-18" value="eventtime" style="shape=partialRectangle;html=1;whiteSpace=wrap;connectable=0;strokeColor=inherit;overflow=hidden;fillColor=#f4f7da;top=0;left=0;bottom=0;right=0;pointerEvents=1;" parent="DgW_6TdiKeqGQ3ARQh2M-17" vertex="1">
          <mxGeometry width="100" height="40" as="geometry">
            <mxRectangle width="100" height="40" as="alternateBounds" />
          </mxGeometry>
        </mxCell>
        <mxCell id="DgW_6TdiKeqGQ3ARQh2M-19" value="" style="shape=tableRow;horizontal=0;startSize=0;swimlaneHead=0;swimlaneBody=0;strokeColor=inherit;top=0;left=0;bottom=0;right=0;collapsible=0;dropTarget=0;fillColor=#f4f7da;points=[[0,0.5],[1,0.5]];portConstraint=eastwest;" parent="DgW_6TdiKeqGQ3ARQh2M-14" vertex="1">
          <mxGeometry y="110" width="100" height="40" as="geometry" />
        </mxCell>
        <mxCell id="DgW_6TdiKeqGQ3ARQh2M-20" value="event_id" style="shape=partialRectangle;html=1;whiteSpace=wrap;connectable=0;strokeColor=inherit;overflow=hidden;fillColor=none;top=0;left=0;bottom=0;right=0;pointerEvents=1;" parent="DgW_6TdiKeqGQ3ARQh2M-19" vertex="1">
          <mxGeometry width="100" height="40" as="geometry">
            <mxRectangle width="100" height="40" as="alternateBounds" />
          </mxGeometry>
        </mxCell>
        <mxCell id="DgW_6TdiKeqGQ3ARQh2M-21" value="" style="shape=tableRow;horizontal=0;startSize=0;swimlaneHead=0;swimlaneBody=0;strokeColor=inherit;top=0;left=0;bottom=0;right=0;collapsible=0;dropTarget=0;fillColor=none;points=[[0,0.5],[1,0.5]];portConstraint=eastwest;" parent="DgW_6TdiKeqGQ3ARQh2M-14" vertex="1">
          <mxGeometry y="150" width="100" height="40" as="geometry" />
        </mxCell>
        <mxCell id="DgW_6TdiKeqGQ3ARQh2M-22" value="intensity" style="shape=partialRectangle;html=1;whiteSpace=wrap;connectable=0;strokeColor=inherit;overflow=hidden;fillColor=none;top=0;left=0;bottom=0;right=0;pointerEvents=1;" parent="DgW_6TdiKeqGQ3ARQh2M-21" vertex="1">
          <mxGeometry width="100" height="40" as="geometry">
            <mxRectangle width="100" height="40" as="alternateBounds" />
          </mxGeometry>
        </mxCell>
        <mxCell id="DgW_6TdiKeqGQ3ARQh2M-47" style="shape=tableRow;horizontal=0;startSize=0;swimlaneHead=0;swimlaneBody=0;strokeColor=inherit;top=0;left=0;bottom=0;right=0;collapsible=0;dropTarget=0;fillColor=none;points=[[0,0.5],[1,0.5]];portConstraint=eastwest;" parent="DgW_6TdiKeqGQ3ARQh2M-14" vertex="1">
          <mxGeometry y="190" width="100" height="40" as="geometry" />
        </mxCell>
        <mxCell id="DgW_6TdiKeqGQ3ARQh2M-48" value="" style="shape=partialRectangle;html=1;whiteSpace=wrap;connectable=0;strokeColor=inherit;overflow=hidden;fillColor=none;top=0;left=0;bottom=0;right=0;pointerEvents=1;" parent="DgW_6TdiKeqGQ3ARQh2M-47" vertex="1">
          <mxGeometry width="100" height="40" as="geometry">
            <mxRectangle width="100" height="40" as="alternateBounds" />
          </mxGeometry>
        </mxCell>
        <mxCell id="KLY5b_Kg2ivJq0K9-VRe-15" style="shape=tableRow;horizontal=0;startSize=0;swimlaneHead=0;swimlaneBody=0;strokeColor=inherit;top=0;left=0;bottom=0;right=0;collapsible=0;dropTarget=0;fillColor=none;points=[[0,0.5],[1,0.5]];portConstraint=eastwest;" vertex="1" parent="DgW_6TdiKeqGQ3ARQh2M-14">
          <mxGeometry y="230" width="100" height="40" as="geometry" />
        </mxCell>
        <mxCell id="KLY5b_Kg2ivJq0K9-VRe-16" value="&lt;meta charset=&quot;utf-8&quot;&gt;&lt;span style=&quot;color: rgb(0, 0, 0); font-family: Helvetica; font-size: 12px; font-style: normal; font-variant-ligatures: normal; font-variant-caps: normal; font-weight: 400; letter-spacing: normal; orphans: 2; text-align: center; text-indent: 0px; text-transform: none; widows: 2; word-spacing: 0px; -webkit-text-stroke-width: 0px; background-color: rgb(251, 251, 251); text-decoration-thickness: initial; text-decoration-style: initial; text-decoration-color: initial; float: none; display: inline !important;&quot;&gt;481374211 rows&lt;/span&gt;" style="shape=partialRectangle;html=1;whiteSpace=wrap;connectable=0;strokeColor=inherit;overflow=hidden;fillColor=none;top=0;left=0;bottom=0;right=0;pointerEvents=1;" vertex="1" parent="KLY5b_Kg2ivJq0K9-VRe-15">
          <mxGeometry width="100" height="40" as="geometry">
            <mxRectangle width="100" height="40" as="alternateBounds" />
          </mxGeometry>
        </mxCell>
        <mxCell id="DgW_6TdiKeqGQ3ARQh2M-34" value="event_types" style="shape=table;startSize=30;container=1;collapsible=0;childLayout=tableLayout;labelBackgroundColor=none;fillColor=#9bab96;" parent="1" vertex="1">
          <mxGeometry x="200" y="40" width="90" height="430" as="geometry" />
        </mxCell>
        <mxCell id="DgW_6TdiKeqGQ3ARQh2M-35" value="" style="shape=tableRow;horizontal=0;startSize=0;swimlaneHead=0;swimlaneBody=0;strokeColor=inherit;top=0;left=0;bottom=0;right=0;collapsible=0;dropTarget=0;fillColor=none;points=[[0,0.5],[1,0.5]];portConstraint=eastwest;" parent="DgW_6TdiKeqGQ3ARQh2M-34" vertex="1">
          <mxGeometry y="30" width="90" height="40" as="geometry" />
        </mxCell>
        <mxCell id="DgW_6TdiKeqGQ3ARQh2M-36" value="event_id" style="shape=partialRectangle;html=1;whiteSpace=wrap;connectable=0;strokeColor=inherit;overflow=hidden;fillColor=#bed1b8;top=0;left=0;bottom=0;right=0;pointerEvents=1;" parent="DgW_6TdiKeqGQ3ARQh2M-35" vertex="1">
          <mxGeometry width="90" height="40" as="geometry">
            <mxRectangle width="90" height="40" as="alternateBounds" />
          </mxGeometry>
        </mxCell>
        <mxCell id="KLY5b_Kg2ivJq0K9-VRe-25" style="shape=tableRow;horizontal=0;startSize=0;swimlaneHead=0;swimlaneBody=0;strokeColor=inherit;top=0;left=0;bottom=0;right=0;collapsible=0;dropTarget=0;fillColor=none;points=[[0,0.5],[1,0.5]];portConstraint=eastwest;" vertex="1" parent="DgW_6TdiKeqGQ3ARQh2M-34">
          <mxGeometry y="70" width="90" height="40" as="geometry" />
        </mxCell>
        <mxCell id="KLY5b_Kg2ivJq0K9-VRe-26" value="c10" style="shape=partialRectangle;html=1;whiteSpace=wrap;connectable=0;strokeColor=inherit;overflow=hidden;fillColor=#bed1b8;top=0;left=0;bottom=0;right=0;pointerEvents=1;" vertex="1" parent="KLY5b_Kg2ivJq0K9-VRe-25">
          <mxGeometry width="90" height="40" as="geometry">
            <mxRectangle width="90" height="40" as="alternateBounds" />
          </mxGeometry>
        </mxCell>
        <mxCell id="KLY5b_Kg2ivJq0K9-VRe-23" style="shape=tableRow;horizontal=0;startSize=0;swimlaneHead=0;swimlaneBody=0;strokeColor=inherit;top=0;left=0;bottom=0;right=0;collapsible=0;dropTarget=0;fillColor=none;points=[[0,0.5],[1,0.5]];portConstraint=eastwest;" vertex="1" parent="DgW_6TdiKeqGQ3ARQh2M-34">
          <mxGeometry y="110" width="90" height="40" as="geometry" />
        </mxCell>
        <mxCell id="KLY5b_Kg2ivJq0K9-VRe-24" value="c100" style="shape=partialRectangle;html=1;whiteSpace=wrap;connectable=0;strokeColor=inherit;overflow=hidden;fillColor=#bed1b8;top=0;left=0;bottom=0;right=0;pointerEvents=1;" vertex="1" parent="KLY5b_Kg2ivJq0K9-VRe-23">
          <mxGeometry width="90" height="40" as="geometry">
            <mxRectangle width="90" height="40" as="alternateBounds" />
          </mxGeometry>
        </mxCell>
        <mxCell id="KLY5b_Kg2ivJq0K9-VRe-21" style="shape=tableRow;horizontal=0;startSize=0;swimlaneHead=0;swimlaneBody=0;strokeColor=inherit;top=0;left=0;bottom=0;right=0;collapsible=0;dropTarget=0;fillColor=none;points=[[0,0.5],[1,0.5]];portConstraint=eastwest;" vertex="1" parent="DgW_6TdiKeqGQ3ARQh2M-34">
          <mxGeometry y="150" width="90" height="40" as="geometry" />
        </mxCell>
        <mxCell id="KLY5b_Kg2ivJq0K9-VRe-22" value="c1000" style="shape=partialRectangle;html=1;whiteSpace=wrap;connectable=0;strokeColor=inherit;overflow=hidden;fillColor=#bed1b8;top=0;left=0;bottom=0;right=0;pointerEvents=1;" vertex="1" parent="KLY5b_Kg2ivJq0K9-VRe-21">
          <mxGeometry width="90" height="40" as="geometry">
            <mxRectangle width="90" height="40" as="alternateBounds" />
          </mxGeometry>
        </mxCell>
        <mxCell id="KLY5b_Kg2ivJq0K9-VRe-27" style="shape=tableRow;horizontal=0;startSize=0;swimlaneHead=0;swimlaneBody=0;strokeColor=inherit;top=0;left=0;bottom=0;right=0;collapsible=0;dropTarget=0;fillColor=none;points=[[0,0.5],[1,0.5]];portConstraint=eastwest;" vertex="1" parent="DgW_6TdiKeqGQ3ARQh2M-34">
          <mxGeometry y="190" width="90" height="40" as="geometry" />
        </mxCell>
        <mxCell id="KLY5b_Kg2ivJq0K9-VRe-28" value="c10000" style="shape=partialRectangle;html=1;whiteSpace=wrap;connectable=0;strokeColor=inherit;overflow=hidden;fillColor=#bed1b8;top=0;left=0;bottom=0;right=0;pointerEvents=1;" vertex="1" parent="KLY5b_Kg2ivJq0K9-VRe-27">
          <mxGeometry width="90" height="40" as="geometry">
            <mxRectangle width="90" height="40" as="alternateBounds" />
          </mxGeometry>
        </mxCell>
        <mxCell id="DgW_6TdiKeqGQ3ARQh2M-37" value="" style="shape=tableRow;horizontal=0;startSize=0;swimlaneHead=0;swimlaneBody=0;strokeColor=inherit;top=0;left=0;bottom=0;right=0;collapsible=0;dropTarget=0;fillColor=none;points=[[0,0.5],[1,0.5]];portConstraint=eastwest;" parent="DgW_6TdiKeqGQ3ARQh2M-34" vertex="1">
          <mxGeometry y="230" width="90" height="40" as="geometry" />
        </mxCell>
        <mxCell id="DgW_6TdiKeqGQ3ARQh2M-38" value="label" style="shape=partialRectangle;html=1;whiteSpace=wrap;connectable=0;strokeColor=inherit;overflow=hidden;fillColor=#f4f7da;top=0;left=0;bottom=0;right=0;pointerEvents=1;" parent="DgW_6TdiKeqGQ3ARQh2M-37" vertex="1">
          <mxGeometry width="90" height="40" as="geometry">
            <mxRectangle width="90" height="40" as="alternateBounds" />
          </mxGeometry>
        </mxCell>
        <mxCell id="DgW_6TdiKeqGQ3ARQh2M-39" value="" style="shape=tableRow;horizontal=0;startSize=0;swimlaneHead=0;swimlaneBody=0;strokeColor=inherit;top=0;left=0;bottom=0;right=0;collapsible=0;dropTarget=0;fillColor=none;points=[[0,0.5],[1,0.5]];portConstraint=eastwest;" parent="DgW_6TdiKeqGQ3ARQh2M-34" vertex="1">
          <mxGeometry y="270" width="90" height="40" as="geometry" />
        </mxCell>
        <mxCell id="DgW_6TdiKeqGQ3ARQh2M-40" value="frequency" style="shape=partialRectangle;html=1;whiteSpace=wrap;connectable=0;strokeColor=inherit;overflow=hidden;fillColor=#f4f7da;top=0;left=0;bottom=0;right=0;pointerEvents=1;" parent="DgW_6TdiKeqGQ3ARQh2M-39" vertex="1">
          <mxGeometry width="90" height="40" as="geometry">
            <mxRectangle width="90" height="40" as="alternateBounds" />
          </mxGeometry>
        </mxCell>
        <mxCell id="DgW_6TdiKeqGQ3ARQh2M-41" value="" style="shape=tableRow;horizontal=0;startSize=0;swimlaneHead=0;swimlaneBody=0;strokeColor=inherit;top=0;left=0;bottom=0;right=0;collapsible=0;dropTarget=0;fillColor=none;points=[[0,0.5],[1,0.5]];portConstraint=eastwest;" parent="DgW_6TdiKeqGQ3ARQh2M-34" vertex="1">
          <mxGeometry y="310" width="90" height="40" as="geometry" />
        </mxCell>
        <mxCell id="DgW_6TdiKeqGQ3ARQh2M-42" value="intensity_mean" style="shape=partialRectangle;html=1;whiteSpace=wrap;connectable=0;strokeColor=inherit;overflow=hidden;fillColor=none;top=0;left=0;bottom=0;right=0;pointerEvents=1;" parent="DgW_6TdiKeqGQ3ARQh2M-41" vertex="1">
          <mxGeometry width="90" height="40" as="geometry">
            <mxRectangle width="90" height="40" as="alternateBounds" />
          </mxGeometry>
        </mxCell>
        <mxCell id="DgW_6TdiKeqGQ3ARQh2M-43" value="" style="shape=tableRow;horizontal=0;startSize=0;swimlaneHead=0;swimlaneBody=0;strokeColor=inherit;top=0;left=0;bottom=0;right=0;collapsible=0;dropTarget=0;fillColor=none;points=[[0,0.5],[1,0.5]];portConstraint=eastwest;" parent="DgW_6TdiKeqGQ3ARQh2M-34" vertex="1">
          <mxGeometry y="350" width="90" height="40" as="geometry" />
        </mxCell>
        <mxCell id="DgW_6TdiKeqGQ3ARQh2M-44" value="intensity_std" style="shape=partialRectangle;html=1;whiteSpace=wrap;connectable=0;strokeColor=inherit;overflow=hidden;fillColor=none;top=0;left=0;bottom=0;right=0;pointerEvents=1;" parent="DgW_6TdiKeqGQ3ARQh2M-43" vertex="1">
          <mxGeometry width="90" height="40" as="geometry">
            <mxRectangle width="90" height="40" as="alternateBounds" />
          </mxGeometry>
        </mxCell>
        <mxCell id="DgW_6TdiKeqGQ3ARQh2M-49" style="shape=tableRow;horizontal=0;startSize=0;swimlaneHead=0;swimlaneBody=0;strokeColor=inherit;top=0;left=0;bottom=0;right=0;collapsible=0;dropTarget=0;fillColor=none;points=[[0,0.5],[1,0.5]];portConstraint=eastwest;" parent="DgW_6TdiKeqGQ3ARQh2M-34" vertex="1">
          <mxGeometry y="390" width="90" height="40" as="geometry" />
        </mxCell>
        <mxCell id="DgW_6TdiKeqGQ3ARQh2M-50" value="87899 rows" style="shape=partialRectangle;html=1;whiteSpace=wrap;connectable=0;strokeColor=inherit;overflow=hidden;fillColor=none;top=0;left=0;bottom=0;right=0;pointerEvents=1;" parent="DgW_6TdiKeqGQ3ARQh2M-49" vertex="1">
          <mxGeometry width="90" height="40" as="geometry">
            <mxRectangle width="90" height="40" as="alternateBounds" />
          </mxGeometry>
        </mxCell>
        <mxCell id="DgW_6TdiKeqGQ3ARQh2M-46" style="edgeStyle=orthogonalEdgeStyle;rounded=0;orthogonalLoop=1;jettySize=auto;html=1;entryX=0;entryY=0.5;entryDx=0;entryDy=0;" parent="1" source="DgW_6TdiKeqGQ3ARQh2M-19" target="DgW_6TdiKeqGQ3ARQh2M-35" edge="1">
          <mxGeometry relative="1" as="geometry" />
        </mxCell>
        <mxCell id="KLY5b_Kg2ivJq0K9-VRe-20" value="intensity_norm" style="shape=partialRectangle;html=1;whiteSpace=wrap;connectable=0;strokeColor=inherit;overflow=hidden;fillColor=none;top=0;left=0;bottom=0;right=0;pointerEvents=1;" vertex="1" parent="1">
          <mxGeometry x="50" y="230" width="100" height="40" as="geometry">
            <mxRectangle width="70" height="40" as="alternateBounds" />
          </mxGeometry>
        </mxCell>
      </root>
    </mxGraphModel>
  </diagram>
</mxfile>
